<?xml version="1.0" standalone="no"?>
<!DOCTYPE svg PUBLIC "-//W3C//DTD SVG 20010904//EN"
 "http://www.w3.org/TR/2001/REC-SVG-20010904/DTD/svg10.dtd">
<svg version="1.0" xmlns="http://www.w3.org/2000/svg"
 width="1044.000000pt" height="1044.000000pt" viewBox="0 0 1044.000000 1044.000000"
 preserveAspectRatio="xMidYMid meet">

<g transform="translate(0.000000,1044.000000) scale(0.100000,-0.100000)"
fill="#000000" stroke="none">
<path d="M4420 6760 c-48 -9 -890 -432 -917 -462 -55 -59 -53 -10 -53 -1138 0
-1147 -4 -1079 62 -1147 40 -41 116 -67 169 -59 22 4 205 89 407 190 l367 183
745 -213 c493 -141 761 -214 792 -214 43 0 98 25 490 222 416 210 445 226 473
266 l30 44 3 1051 c3 1175 7 1103 -68 1171 -46 41 -107 60 -166 51 -25 -3
-186 -78 -400 -185 -196 -99 -364 -180 -371 -180 -7 0 -339 92 -736 205 -397
113 -737 209 -757 213 -19 5 -51 5 -70 2z m810 -438 l655 -188 3 -203 c2 -191
1 -203 -15 -196 -102 43 -120 47 -198 43 -76 -3 -102 -12 -207 -66 -4 -2 -77
64 -163 147 l-155 151 -38 -16 c-20 -9 -56 -23 -79 -32 -48 -18 -49 -22 -25
-74 l17 -37 44 19 c24 11 48 20 55 20 6 0 33 -22 59 -48 l48 -49 -56 -141
c-32 -78 -60 -142 -63 -142 -9 0 -285 140 -295 150 -5 5 7 14 27 21 40 15 44
29 18 75 l-17 32 -140 -59 c-77 -32 -143 -59 -147 -59 -5 0 -8 189 -8 420 0
329 3 420 13 420 6 0 307 -85 667 -188z m-900 -826 l0 -984 -330 -165 -330
-164 0 983 0 984 328 164 c180 91 328 165 330 165 1 1 2 -442 2 -983z m2440
-1 l0 -984 -324 -161 c-178 -88 -327 -160 -330 -160 -3 0 -6 441 -6 980 l0
980 328 164 c180 91 328 165 330 165 1 1 2 -442 2 -984z m-1410 180 l36 -35
-30 -62 c-60 -121 -45 -271 39 -381 36 -47 108 -99 168 -119 l36 -13 -240
-147 -239 -148 -65 0 -66 0 26 28 c70 74 103 217 76 330 l-12 49 107 267 c59
146 112 266 118 266 6 0 26 -16 46 -35z m429 -11 c19 -8 50 -26 68 -40 l33
-25 0 -175 c0 -173 0 -175 -25 -200 -41 -41 -103 -64 -175 -64 -151 0 -261
108 -262 257 0 63 25 147 43 141 4 -2 34 -28 66 -58 32 -30 69 -64 81 -75 l23
-19 31 33 31 33 -82 82 c-87 88 -88 91 -26 114 64 24 129 22 194 -4z m-1067
-70 l33 -15 -7 -82 c-3 -45 -7 -87 -7 -93 -1 -6 -23 -14 -50 -17 -27 -3 -68
-15 -90 -26 -22 -12 -43 -21 -46 -21 -3 0 -5 57 -5 126 0 106 2 125 14 115 10
-9 24 -7 57 8 55 24 61 25 101 5z m345 -176 c8 -7 5 -25 -14 -71 -14 -34 -27
-64 -29 -66 -2 -3 -17 7 -32 21 -30 29 -117 78 -138 78 -15 0 -18 31 -8 103
l7 46 101 -51 c55 -28 106 -54 113 -60z m-346 -285 c-7 -75 -10 -137 -9 -138
2 -2 68 23 147 56 79 33 146 57 149 55 2 -3 5 -35 5 -70 0 -161 -124 -276
-283 -264 -62 5 -112 26 -153 64 l-27 25 2 176 3 176 37 30 c46 37 131 62 136
40 2 -8 -1 -76 -7 -150z m157 133 c29 -15 78 -63 71 -70 -2 -2 -32 -15 -66
-29 l-63 -26 0 23 c0 47 13 116 22 116 5 0 21 -6 36 -14z m982 -211 l30 -16 0
-445 0 -446 -27 7 c-16 3 -316 88 -668 188 l-640 183 0 28 c0 27 7 32 100 72
l100 43 200 1 200 0 320 199 c176 110 328 200 338 200 10 1 31 -6 47 -14z
m-1276 -344 c3 -5 -1 -12 -10 -15 -22 -9 -24 -8 -24 9 0 16 25 21 34 6z"/>
</g>
</svg>
