<svg xmlns="http://www.w3.org/2000/svg" version="1.1" viewBox="-5.0 -10.0 110.0 135.0">
 <path d="m85.242 52.867c-0.48438-3.1484-1.1797-6.293-2.0547-9.3516-1.4141-4.8984-3.3281-9.6719-5.6953-14.191-0.59375-1.1328-1.8125-1.793-3.1016-1.6562-1.2734 0.13281-2.3359 1.0391-2.6797 2.2734-0.44531 1.6016-1.1797 3.0664-2.1797 4.3516-0.039062 0.050781-0.078125 0.10156-0.12109 0.14844-1.1445-1.1797-2.3477-2.2969-3.5977-3.3438-1.7305-1.4453-3.5781-2.7812-5.4922-3.9688-1.4648-0.91016-3.4023-2.5234-4.3125-5.0352l-0.16406-0.46484c-1.5352-4.6406-0.83594-8.9258 0.023438-11.703 0.39844-1.3008-0.085938-2.7109-1.207-3.4883-1.1172-0.77734-2.6094-0.74219-3.6914 0.089844-6.0195 4.6328-11.039 10.641-14.52 17.367-2.9648 5.7383-4.8516 12.051-5.5312 18.488-0.98828-0.65234-1.9961-1.5195-2.8867-2.6523-1.0039-1.2812-1.7383-2.7422-2.1797-4.3477-0.35547-1.293-1.5-2.2148-2.8398-2.2891-1.375-0.058594-2.5781 0.72266-3.0742 1.9648-1.1016 2.7695-2.0547 5.625-2.8008 8.375-4.6758 14.785-1.3047 30.129 8.8047 40.039 8.3203 8.1602 18.527 9.9336 23.871 10.262 0.066406 0.003906 0.12891 0.007813 0.19531 0.007813 17.367 0 27.523-12.305 30.301-16.195 4.5586-7.0547 6.3164-15.82 4.9414-24.684zm-21.84 27.16c-1.1875 1.6641-5.6406 7.0664-13.133 7.1094-2.3906-0.16406-6.8203-0.96094-10.375-4.4492-4.1016-4.0234-5.6484-10.18-4.1602-16.449 1.2617 1.0078 2.7422 1.7695 4.3242 2.2266 0.92188 0.26562 1.9414 0.085937 2.7227-0.49219 0.78125-0.58203 1.2461-1.4922 1.2617-2.4648 0.054687-3.8203 1.0078-7.6328 2.7656-11.016 0.51953-1.0078 1.1094-1.9766 1.7656-2.9062 0.078125 0.29687 0.16797 0.59766 0.26953 0.89844l0.13281 0.38672c0.79688 2.1953 2.3516 4.0547 4.4922 5.3828 0.89844 0.55859 1.7578 1.1797 2.5664 1.8555 0.97656 0.82031 1.8984 1.7344 2.7266 2.7148 1.0781 1.2773 2.9688 1.4883 4.3047 0.45703 0.22656-0.17578 0.44531-0.35547 0.65234-0.54688 0.23828 0.67578 0.45703 1.3555 0.65234 2.043 0.44531 1.5508 0.79688 3.1367 1.0391 4.7148 0.59375 3.8672-0.14844 7.6523-2.0078 10.539zm11.734-5.9922c-0.75781 1.0625-2.2422 2.9414-4.4062 4.9609 1.0977-3.2656 1.4141-6.8477 0.85547-10.461-0.28516-1.8398-0.69531-3.6914-1.2109-5.4922-0.83594-2.8867-1.9609-5.6953-3.3477-8.3398-0.59766-1.1328-1.8477-1.793-3.1016-1.6523-1.2734 0.13672-2.3359 1.0391-2.6797 2.2734-0.074219 0.27344-0.17188 0.53906-0.28516 0.79297-0.30469-0.27344-0.60938-0.54297-0.92188-0.80469-1.0234-0.85938-2.1328-1.6562-3.2852-2.3711-0.65234-0.40625-1.5156-1.1172-1.9844-2.4141-0.75781-2.3047-0.41016-4.457 0.023438-5.8555 0.39844-1.3047-0.085938-2.7109-1.2109-3.4844-1.1172-0.77344-2.6055-0.73828-3.6875 0.09375-3.5859 2.7656-6.5742 6.3398-8.6484 10.344-1.3555 2.6133-2.3281 5.4297-2.8945 8.3242-0.28906-0.46094-0.50781-0.97266-0.66016-1.5195-0.35938-1.293-1.5-2.2109-2.8398-2.2852-1.3906-0.0625-2.5742 0.71875-3.0703 1.9609-0.64453 1.6133-1.207 3.2891-1.6328 4.8672-1.7422 5.5078-1.6133 11.145 0.17969 16.066-0.007813-0.007812-0.011719-0.007812-0.019531-0.015624-8.4141-8.2539-11.184-21.164-7.1875-33.809 0.10547-0.39453 0.21875-0.78906 0.33203-1.1836 2.3984 2.8672 5.7266 5.0156 9.4414 6.0859 0.93359 0.27344 1.9375 0.085937 2.7266-0.49219 0.78125-0.58203 1.2461-1.4922 1.2617-2.4648 0.10156-7.0664 1.8711-14.109 5.1172-20.379 1.7969-3.4805 4.0703-6.7422 6.7109-9.668 0.097656 2.0508 0.45703 4.2461 1.207 6.5234l0.19922 0.57812c1.2109 3.3438 3.5977 6.1953 6.9062 8.2422 1.6602 1.0312 3.2656 2.1875 4.7656 3.4453 1.8242 1.5234 3.5352 3.2266 5.082 5.0586 1.0781 1.2734 2.9688 1.4805 4.3047 0.45312 1.2266-0.94922 2.3242-2.0469 3.2734-3.2656 0.054687-0.070313 0.11328-0.14453 0.16797-0.21484 0.98828 2.3906 1.8477 4.8359 2.5586 7.3203 0.80469 2.8008 1.4414 5.6836 1.8867 8.5703 1.1367 7.3516-0.28906 14.574-3.9297 20.215z"/>
<text x="0.0" y="117.5" font-size="5.0" font-weight="bold" font-family="Arbeit Regular, Helvetica, Arial-Unicode, Arial, Sans-serif" fill="#000000">Created by Corner Pixel</text><text x="0.0" y="122.5" font-size="5.0" font-weight="bold" font-family="Arbeit Regular, Helvetica, Arial-Unicode, Arial, Sans-serif" fill="#000000">from Noun Project</text></svg>