<svg xmlns="http://www.w3.org/2000/svg" xmlns:xlink="http://www.w3.org/1999/xlink" version="1.1" x="0px" y="0px" viewBox="0 0 100 125" style="enable-background:new 0 0 100 100;" xml:space="preserve"><path d="M89.22,66.01c-26.46-8.38-30.07-43.77-30.1-44.12l-0.05,0c-0.03-0.35-0.17-0.68-0.47-0.88l-8.49-5.78  c-0.28-0.19-0.64-0.26-0.96-0.17l-38.19,9.39c-0.05,0.01-0.08,0.06-0.12,0.07c-0.06,0.02-0.12,0.01-0.17,0.04  c-0.07,0.04-0.1,0.1-0.16,0.15c-0.07,0.06-0.14,0.11-0.2,0.19c-0.08,0.1-0.13,0.22-0.17,0.34c-0.02,0.06-0.07,0.11-0.08,0.17  c-0.01,0.03,0.01,0.06,0.01,0.09c0,0.04-0.03,0.06-0.03,0.1v37.18c0,0.41,0.21,0.79,0.55,1.01c0.11,0.07,11.37,7.23,32.41,19.98  c0.64,0.44,1.3,0.84,1.97,1.19c0.18,0.09,0.36,0.14,0.55,0.14c0.15,0,0.29-0.06,0.43-0.12l0.01,0.03  c0.28-0.11,28.17-11.3,43.28-16.74c0.48-0.17,0.8-0.64,0.79-1.15C90.04,66.62,89.71,66.17,89.22,66.01z M49.21,17.5l5.85,3.98  l-34.41,8.64l-6.38-4.03L49.21,17.5z M45.64,82.58c-0.46-0.28-0.91-0.55-1.36-0.82c-13.64-9.47-21.3-41.83-22.92-49.35l35.55-8.92  c0.93,6.49,6.19,34.36,28.47,43.66C71.05,72.42,49.23,81.14,45.64,82.58z"/><text x="0" y="115" fill="#000000" font-size="5px" font-weight="bold" font-family="'Helvetica Neue', Helvetica, Arial-Unicode, Arial, Sans-serif">Created by Kick</text><text x="0" y="120" fill="#000000" font-size="5px" font-weight="bold" font-family="'Helvetica Neue', Helvetica, Arial-Unicode, Arial, Sans-serif">from the Noun Project</text></svg>