<svg xmlns="http://www.w3.org/2000/svg" version="1.1" viewBox="-5.0 -10.0 110.0 135.0">
 <g>
  <path d="m51.805 47.59v-11.25c0-0.35938-0.19141-0.6875-0.50391-0.86719l-23.062-13.219c-0.23438-0.13672-0.51953-0.16797-0.78125-0.09375l-7.4922 2.2031c-0.26172 0.078125-0.48047 0.25781-0.60547 0.50391l-7.7852 15.129c-0.074219 0.14062-0.10938 0.29688-0.10938 0.45703v9.1055c0 0.42578 0.26953 0.80859 0.67578 0.94531 0.097656 0.035156 9.7734 3.4375 11.246 9.9961 0.082031 0.36719 0.36328 0.65625 0.72656 0.75l18.582 4.8125c0.082032 0.019531 0.16797 0.03125 0.25 0.03125 0.26172 0 0.51953-0.10547 0.70703-0.29297l8.8867-8.9258c0.21484-0.21875 0.32031-0.51953 0.28516-0.82422zm-2-0.32422-8.1484 8.9648-13.023-3.3594c-0.44531-2.3945-2.6602-9.9023-13.148-12.363-0.070313-0.015624-0.13672-0.019531-0.20312-0.019531-0.13672-0.039062-0.27734-0.046875-0.41406-0.039062-0.11328-0.027344-0.23438-0.042969-0.36719-0.042969-0.035156 0-0.070312 0.007812-0.10547 0.011719-0.078125-0.015625-0.14844-0.042969-0.23828-0.042969-0.13281 0-0.25391 0.015625-0.36719 0.042969-0.0625 0.003906-0.12891 0.007812-0.1875 0.019531l7.3477-14.273 6.6719-1.9609 22.188 12.719z"/>
  <path d="m89.988 65.098c0-0.26953-0.10156-0.53125-0.29688-0.71875l-6.7227-6.5c-0.058594-0.058594-0.125-0.10547-0.19531-0.14844l-8.5938-4.957c-0.24219-0.14063-0.53125-0.17188-0.80078-0.085938l-5.7734 1.8047c-0.52734 0.16406-0.82031 0.72656-0.65234 1.2539s0.73047 0.82031 1.2539 0.65234l5.3555-1.6719 8.1055 4.6758 5.6172 5.4336-2.2695 1.1367h-5.4922c-0.082032 0-0.16797 0.011719-0.24609 0.03125l-8.1055 2.0742-2.8086-9.2227c-0.050781-0.17188-0.14844-0.32422-0.28125-0.44531l-2.5352-2.3125c-0.40625-0.375-1.0391-0.34375-1.4141 0.0625-0.023437 0.023438-0.03125 0.054688-0.050781 0.082032-0.007812 0.007812-0.023437 0.007812-0.03125 0.015624l-3.6367 5.1797c-0.27344 0.39062-0.23437 0.91797 0.09375 1.2617l1.8086 1.9062 2.3594 9.0078c0.054688 0.21484 0.17969 0.40234 0.35547 0.53906l3.8555 2.9766c0.17578 0.13672 0.39062 0.20703 0.60938 0.20703 0.078125 0 0.16016-0.011719 0.23828-0.027344l9.0898-2.2461 2.1562 0.6875c0.16016 0.050781 0.33203 0.0625 0.5 0.027344l7.5742-1.5156c0.46094-0.09375 0.79687-0.49219 0.80469-0.96484l0.13672-8.1797c0-0.011719-0.007813-0.015626-0.007813-0.019532z"/>
  <path d="m69.852 29.125-4.6289-1.7617c-0.48047-0.18359-1.0195 0.027344-1.25 0.48828l-2.7305 5.4609-3.1562 1.832c-0.19531 0.11328-0.33594 0.29297-0.41797 0.49609-0.003907 0.007813-0.011719 0.007813-0.015625 0.015625l-1.5352 4.0625c-0.16797 0.44141-0.003907 0.94141 0.39844 1.1953l9.5234 6.0742c0.16406 0.10547 0.35156 0.15625 0.53516 0.15625 0.31641 0 0.62891-0.14844 0.82031-0.42969l2.918-4.1875c0.003906-0.003906 0-0.011719 0.003906-0.015625 0.10938-0.16406 0.17578-0.35156 0.17578-0.55469l0.003906-11.895c0-0.41797-0.25781-0.78906-0.64453-0.9375zm-1.3555 11.148-7.8672-4.293 1.8789-1.0898c0.16797-0.097656 0.30469-0.24219 0.39453-0.41797l2.4609-4.918 3.1367 1.1953z"/>
  <path d="m54.723 86.238-0.95312-4.9219c0-0.007812-0.007812-0.007812-0.011719-0.015625-0.03125-0.15625-0.09375-0.30469-0.19531-0.42969l-5.2891-6.4648c-0.35156-0.42969-0.98047-0.48828-1.4062-0.14062-0.42578 0.35156-0.48828 0.98047-0.14063 1.4062l4.5195 5.5273-7.3867 3.9883-4.1953-4.1875c-0.92187-2.0156-1.0273-3.6797-0.3125-4.9453 1.4219-2.5117 5.6289-2.9453 5.6719-2.9531 0.55078-0.054687 0.95312-0.53906 0.89844-1.0898-0.050781-0.55078-0.54297-0.97266-1.0898-0.89844-0.21094 0.019531-5.0078 0.51562-7.0547 3.6953-2.4102 2.1094-3.5078 4.4414-3.2422 6.9336 0.61719 5.8047 8.5469 10.16 8.8828 10.344 0.14844 0.078124 0.3125 0.12109 0.47656 0.12109 0.14844 0 0.29688-0.03125 0.4375-0.10156l9.8438-4.7734c0.41016-0.19922 0.63281-0.64844 0.54688-1.0938z"/>
  <path d="m19.898 7.7969s0.41406 0.67969 0.77344 1.7266c0.38672 1.043 0.71094 2.457 0.87891 3.8906 0.16406 1.4336 0.17188 2.8828 0.03125 3.9883-0.11328 1.1016-0.36328 1.8555-0.36328 1.8555s-0.41797-0.67969-0.77734-1.7227c-0.39062-1.043-0.71094-2.457-0.87891-3.8906-0.16016-1.4336-0.16797-2.8828-0.027344-3.9883 0.11328-1.1055 0.36328-1.8594 0.36328-1.8594z"/>
  <path d="m17.715 20.254s-0.64453 0.023438-1.4844-0.17188c-0.85156-0.17188-1.8945-0.57031-2.8594-1.1016-0.96484-0.53906-1.8516-1.2148-2.4453-1.8477-0.60547-0.60937-0.92578-1.1719-0.92578-1.1719s0.64453-0.023438 1.4844 0.17187c0.85156 0.17188 1.8945 0.57031 2.8594 1.1055 0.96094 0.53906 1.8477 1.2148 2.4414 1.8516 0.61328 0.60547 0.92969 1.1641 0.92969 1.1641z"/>
 </g>
<text x="0.0" y="117.5" font-size="5.0" font-weight="bold" font-family="Arbeit Regular, Helvetica, Arial-Unicode, Arial, Sans-serif" fill="#000000">Created by Arief Mochjiyat</text><text x="0.0" y="122.5" font-size="5.0" font-weight="bold" font-family="Arbeit Regular, Helvetica, Arial-Unicode, Arial, Sans-serif" fill="#000000">from Noun Project</text></svg>